# This file uses centimeters as units for non-parametric coordinates.

v 0.000001 4.887875 -5.131354
v -5.131354 4.887875 -0.000000
v -0.000000 4.887875 5.131354
v 5.131354 4.887875 0.000000
v 0.000000 10.019230 0.000000
v 0.000000 4.887875 -5.118410
v 5.108129 4.887875 -0.000000
v 0.000001 4.887875 5.118410
v -5.108128 4.887875 0.000000
v 0.000001 -0.172599 0.000000
vt 0.250000 0.500000
vt 0.375000 0.500000
vt 0.500000 0.500000
vt 0.625000 0.500000
vt 0.750000 0.500000
vt 0.500000 1.000000
vt 0.250000 0.500000
vt 0.375000 0.500000
vt 0.500000 1.000000
vt 0.500000 0.500000
vt 0.625000 0.500000
vt 0.750000 0.500000
vt 0.250000 0.500000
vt 0.375000 0.500000
vt 0.500000 1.000000
vt 0.500000 0.500000
vt 0.625000 0.500000
vt 0.750000 0.500000
vn -0.577350 0.577350 -0.577350
vn -0.577350 0.577350 -0.577350
vn -0.577350 0.577350 -0.577350
vn -0.577350 0.577350 0.577350
vn -0.577350 0.577350 0.577350
vn -0.577350 0.577350 0.577350
vn 0.577350 0.577350 0.577350
vn 0.577350 0.577350 0.577350
vn 0.577350 0.577350 0.577350
vn 0.577350 0.577350 -0.577350
vn 0.577350 0.577350 -0.577350
vn 0.577350 0.577350 -0.577350
vn -0.577350 0.577350 -0.577350
vn -0.577350 0.577350 -0.577350
vn -0.577350 0.577350 -0.577350
vn -0.577350 0.577350 0.577350
vn -0.577350 0.577350 0.577350
vn -0.577350 0.577350 0.577350
vn 0.577350 0.577350 0.577350
vn 0.577350 0.577350 0.577350
vn 0.577350 0.577350 0.577350
vn 0.577350 0.577350 -0.577350
vn 0.577350 0.577350 -0.577350
vn 0.577350 0.577350 -0.577350
vn 0.575921 -0.581344 -0.574764
vn 0.575921 -0.581344 -0.574764
vn 0.575921 -0.581344 -0.574764
vn 0.575921 -0.581344 0.574764
vn 0.575921 -0.581344 0.574764
vn 0.575921 -0.581344 0.574764
vn -0.575921 -0.581344 0.574764
vn -0.575921 -0.581344 0.574764
vn -0.575921 -0.581344 0.574764
vn -0.575921 -0.581344 -0.574764
vn -0.575921 -0.581344 -0.574764
vn -0.575921 -0.581344 -0.574764
f 1/1/1 2/2/2 5/6/3
f 2/2/4 3/3/5 5/6/6
f 3/3/7 4/4/8 5/6/9
f 4/4/10 1/5/11 5/6/12
f 1/7/13 2/8/14 5/9/15
f 2/8/16 3/10/17 5/9/18
f 3/10/19 4/11/20 5/9/21
f 4/11/22 1/12/23 5/9/24
f 6/13/25 7/14/26 10/15/27
f 7/14/28 8/16/29 10/15/30
f 8/16/31 9/17/32 10/15/33
f 9/17/34 6/18/35 10/15/36
