# This file uses centimeters as units for non-parametric coordinates.

mtllib square.mtl
g default
v -12.312480 -0.000000 28.292876
v 10.767126 -0.000000 28.292876
v -12.312480 0.000000 5.213270
v 10.767126 0.000000 5.213270
v -11.703435 -0.000000 27.683830
v 10.158081 -0.000000 27.683830
v 10.158081 0.000000 5.822315
v -11.703435 0.000000 5.822315
v -11.703435 -1.117718 27.683830
v 10.158081 -1.117718 27.683830
v 10.158081 -1.117718 5.822315
v -11.703435 -1.117718 5.822315
vt 0.000000 0.000000
vt 1.000000 0.000000
vt 0.000000 1.000000
vt 1.000000 1.000000
vt 0.000000 0.000000
vt 1.000000 0.000000
vt 1.000000 1.000000
vt 0.000000 1.000000
vt 0.000000 0.000000
vt 1.000000 0.000000
vt 1.000000 1.000000
vt 0.000000 1.000000
vt 0.000000 0.000000
vt 1.000000 0.000000
vt 1.000000 1.000000
vt 0.000000 1.000000
vn 0.000000 1.000000 0.000000
vn 0.000000 1.000000 0.000000
vn 0.000000 1.000000 0.000000
vn 0.000000 1.000000 0.000000
vn 0.000000 -1.000000 -0.000000
vn 0.000000 -1.000000 -0.000000
vn 0.000000 -1.000000 -0.000000
vn 0.000000 -1.000000 -0.000000
vn 0.000000 1.000000 0.000000
vn -0.000000 1.000000 0.000000
vn -0.000000 1.000000 0.000000
vn 0.000000 1.000000 0.000000
vn -0.000000 1.000000 0.000000
vn -0.000000 1.000000 0.000000
vn 0.000000 1.000000 0.000000
vn 0.000000 1.000000 0.000000
vn 0.000000 0.000000 -1.000000
vn 0.000000 0.000000 -1.000000
vn 0.000000 0.000000 -1.000000
vn 0.000000 0.000000 -1.000000
vn -1.000000 0.000000 0.000000
vn -1.000000 0.000000 0.000000
vn -1.000000 0.000000 0.000000
vn -1.000000 0.000000 0.000000
vn 0.000000 0.000000 1.000000
vn 0.000000 0.000000 1.000000
vn 0.000000 0.000000 1.000000
vn 0.000000 0.000000 1.000000
vn 1.000000 0.000000 0.000000
vn 1.000000 0.000000 0.000000
vn 1.000000 0.000000 0.000000
vn 1.000000 0.000000 0.000000
s off
g pPlane1
usemtl initialShadingGroup
f 9/13/1 10/14/2 11/15/3 12/16/4
f 1/5/5 3/8/6 4/7/7 2/6/8
s 1
f 1/1/9 2/2/10 6/10/11 5/9/12
f 2/2/10 4/4/13 7/11/14 6/10/11
f 4/4/13 3/3/15 8/12/16 7/11/14
f 3/3/15 1/1/9 5/9/12 8/12/16
s off
f 5/9/17 6/10/18 10/14/19 9/13/20
f 6/10/21 7/11/22 11/15/23 10/14/24
f 7/11/25 8/12/26 12/16/27 11/15/28
f 8/12/29 5/9/30 9/13/31 12/16/32
